<svg version="1.1" id="Layer_1" xmlns="http://www.w3.org/2000/svg" xmlns:xlink="http://www.w3.org/1999/xlink" x="0px" y="0px"
	 width="100%" viewBox="0 0 800 811" enable-background="new 0 0 800 811" xml:space="preserve">
<path fill="#000000" opacity="1.000000" stroke="none" 
	d="
M801.000000,280.000000 
	C801.000000,457.666595 801.000000,634.833191 801.000000,811.999817 
	C534.333557,811.999878 267.667084,811.999878 1.000476,811.999939 
	C1.000318,541.666992 1.000318,271.334015 1.000159,1.000766 
	C267.666199,1.000511 534.332397,1.000511 800.999268,1.000255 
	C801.000000,93.833336 801.000000,186.666672 801.000000,280.000000 
M688.222046,202.969269 
	C689.305359,195.736649 690.109131,188.449005 691.519775,181.280823 
	C698.002014,148.341949 711.531372,118.424591 730.886963,91.104370 
	C732.837830,88.350800 733.049438,86.558571 730.869019,83.810867 
	C725.802124,77.425728 721.017578,70.804176 716.378174,64.098816 
	C714.728577,61.714718 713.132568,61.611393 710.546570,62.156967 
	C695.628357,65.304260 680.780518,69.186119 665.690308,71.036400 
	C631.694214,75.204819 598.341370,71.283791 565.845703,60.344612 
	C549.382080,54.802380 533.989807,47.119667 520.545959,37.635292 
	C508.987976,44.221546 498.309631,51.056709 487.002380,56.611740 
	C450.494537,74.547310 411.969818,81.139938 371.640411,74.838921 
	C340.596161,69.988617 312.390961,57.831978 286.807861,39.664528 
	C283.536285,37.341251 281.335907,36.925545 277.772247,39.426277 
	C271.674683,43.705109 265.159058,47.503677 258.476593,50.812412 
	C235.932449,61.974876 211.975876,68.238487 187.018250,71.192390 
	C163.674622,73.955269 140.477570,73.547943 117.452003,68.942184 
	C107.939857,67.039482 98.636909,64.090904 89.079437,61.576057 
	C82.480827,70.097939 75.782455,78.748672 69.262321,87.169212 
	C73.891769,94.481377 78.470146,101.239182 82.575264,108.273193 
	C110.687073,156.442093 121.361961,207.855896 111.174461,263.126190 
	C103.336967,305.646881 84.974136,343.435028 59.433956,377.939789 
	C52.622616,387.141937 45.145329,395.851135 37.725792,405.095673 
	C47.248039,415.208618 56.905842,425.296448 66.302628,435.621826 
	C67.763855,437.227448 68.865440,439.971130 68.728935,442.098389 
	C66.692268,473.837067 68.300102,505.312347 75.020370,536.449707 
	C90.607895,608.672119 130.413071,662.919678 195.712097,697.866638 
	C242.275009,722.786255 292.752258,733.270264 344.948395,737.081177 
	C348.000244,737.303955 351.382172,738.632080 353.825745,740.482239 
	C360.590332,745.604126 366.929443,751.286682 373.455322,756.725342 
	C382.653046,764.390625 391.867371,772.036072 401.262054,779.845764 
	C417.351776,766.174683 433.159515,752.664917 449.101898,739.315918 
	C450.730194,737.952637 453.111359,737.015869 455.236877,736.798706 
	C465.829254,735.716797 476.483856,735.213074 487.059998,734.009094 
	C523.303284,729.883240 558.114868,720.357788 591.086914,704.744873 
	C651.621521,676.080444 695.810425,631.995361 718.299133,567.907837 
	C732.539734,527.325317 735.499817,485.431366 732.188660,442.882812 
	C731.939514,439.681976 732.375610,437.244232 734.823669,434.871246 
	C740.804077,429.074371 746.495728,422.979095 752.289185,416.989960 
	C756.065002,413.086578 759.815369,409.158569 763.586121,405.232147 
	C713.137512,347.115326 682.535461,282.255310 688.222046,202.969269 
z"/>
<path fill="#ECBB00" opacity="1.000000" stroke="none" 
	d="
M688.179382,203.430420 
	C682.535461,282.255310 713.137512,347.115326 763.586121,405.232147 
	C759.815369,409.158569 756.065002,413.086578 752.289185,416.989960 
	C746.495728,422.979095 740.804077,429.074371 734.823669,434.871246 
	C732.375610,437.244232 731.939514,439.681976 732.188660,442.882812 
	C735.499817,485.431366 732.539734,527.325317 718.299133,567.907837 
	C695.810425,631.995361 651.621521,676.080444 591.086914,704.744873 
	C558.114868,720.357788 523.303284,729.883240 487.059998,734.009094 
	C476.483856,735.213074 465.829254,735.716797 455.236877,736.798706 
	C453.111359,737.015869 450.730194,737.952637 449.101898,739.315918 
	C433.159515,752.664917 417.351776,766.174683 401.262054,779.845764 
	C391.867371,772.036072 382.653046,764.390625 373.455322,756.725342 
	C366.929443,751.286682 360.590332,745.604126 353.825745,740.482239 
	C351.382172,738.632080 348.000244,737.303955 344.948395,737.081177 
	C292.752258,733.270264 242.275009,722.786255 195.712097,697.866638 
	C130.413071,662.919678 90.607895,608.672119 75.020370,536.449707 
	C68.300102,505.312347 66.692268,473.837067 68.728935,442.098389 
	C68.865440,439.971130 67.763855,437.227448 66.302628,435.621826 
	C56.905842,425.296448 47.248039,415.208618 37.725792,405.095673 
	C45.145329,395.851135 52.622616,387.141937 59.433956,377.939789 
	C84.974136,343.435028 103.336967,305.646881 111.174461,263.126190 
	C121.361961,207.855896 110.687073,156.442093 82.575264,108.273193 
	C78.470146,101.239182 73.891769,94.481377 69.262321,87.169212 
	C75.782455,78.748672 82.480827,70.097939 89.079437,61.576057 
	C98.636909,64.090904 107.939857,67.039482 117.452003,68.942184 
	C140.477570,73.547943 163.674622,73.955269 187.018250,71.192390 
	C211.975876,68.238487 235.932449,61.974876 258.476593,50.812412 
	C265.159058,47.503677 271.674683,43.705109 277.772247,39.426277 
	C281.335907,36.925545 283.536285,37.341251 286.807861,39.664528 
	C312.390961,57.831978 340.596161,69.988617 371.640411,74.838921 
	C411.969818,81.139938 450.494537,74.547310 487.002380,56.611740 
	C498.309631,51.056709 508.987976,44.221546 520.545959,37.635292 
	C533.989807,47.119667 549.382080,54.802380 565.845703,60.344612 
	C598.341370,71.283791 631.694214,75.204819 665.690308,71.036400 
	C680.780518,69.186119 695.628357,65.304260 710.546570,62.156967 
	C713.132568,61.611393 714.728577,61.714718 716.378174,64.098816 
	C721.017578,70.804176 725.802124,77.425728 730.869019,83.810867 
	C733.049438,86.558571 732.837830,88.350800 730.886963,91.104370 
	C711.531372,118.424591 698.002014,148.341949 691.519775,181.280823 
	C690.109131,188.449005 689.305359,195.736649 688.179382,203.430420 
M248.870087,85.798805 
	C201.876099,100.893013 154.054779,104.152481 104.407372,94.587196 
	C151.631927,173.809753 150.204285,254.015045 115.861229,335.890625 
	C305.682953,335.890625 494.751312,335.890625 684.377625,335.890625 
	C648.918518,254.653763 649.517883,175.049301 693.794678,97.524055 
	C675.129333,98.326393 656.839233,99.667908 638.541138,99.786224 
	C597.523865,100.051445 557.958679,93.774162 522.246826,71.687065 
	C520.991211,70.910522 518.476379,71.220894 516.984131,71.935051 
	C509.190552,75.664825 501.668610,79.975052 493.815094,83.564575 
	C443.007477,106.786583 390.799591,112.276581 336.813446,95.918343 
	C319.727173,90.741058 304.941559,81.007744 289.372864,72.839920 
	C283.142670,69.571358 277.802307,69.587845 271.868134,73.216400 
	C264.661469,77.623062 257.141357,81.517128 249.788818,85.790512 
	C249.788818,85.790512 249.630569,85.762138 248.870087,85.798805 
M625.618591,651.099304 
	C645.575989,635.620117 662.244446,617.200500 675.196594,595.484924 
	C698.775818,555.952271 707.131897,512.689514 706.356079,467.250366 
	C706.192627,457.672882 705.463928,448.105072 704.995605,438.532043 
	C502.151825,438.532043 300.141998,438.532043 97.984909,438.532043 
	C97.664574,440.466522 97.301758,442.089172 97.138031,443.731628 
	C94.734222,467.846069 94.463463,491.926819 97.859131,515.999939 
	C106.450150,576.904663 135.408798,625.276123 186.962418,659.246155 
	C237.026794,692.234802 293.397278,705.254761 352.324799,708.517456 
	C374.579498,709.749634 396.968719,708.350952 419.291656,708.598999 
	C451.526306,708.957092 483.502869,706.985229 515.080566,700.056763 
	C555.023010,691.293091 592.332214,676.631653 625.618591,651.099304 
M525.125305,367.619781 
	C524.252075,356.617676 515.391174,348.117065 503.942749,347.734589 
	C494.129059,347.406769 484.301605,347.484161 474.480133,347.400452 
	C471.041412,347.371155 467.602203,347.395782 464.156738,347.395782 
	C464.156738,374.016449 464.156738,400.097595 464.156738,426.320343 
	C465.064392,426.486053 465.693970,426.703583 466.322540,426.700653 
	C479.474152,426.639679 492.632782,426.791931 505.774994,426.399170 
	C516.749573,426.071228 527.418457,414.430573 528.060791,403.160248 
	C528.529785,394.930206 524.273804,389.034973 520.218567,384.897888 
	C522.076660,378.710388 523.609375,373.606384 525.125305,367.619781 
M419.942230,358.645081 
	C417.552155,356.593323 415.366028,354.223022 412.739044,352.541351 
	C395.212799,341.321991 371.915039,347.115875 364.483032,364.558929 
	C360.224091,374.554718 358.732178,385.044342 360.188324,395.850830 
	C362.932526,416.216583 378.127838,429.094116 397.909210,427.924011 
	C409.654938,427.229218 420.652618,418.549408 422.716034,408.140106 
	C418.213226,405.608093 413.646149,403.039978 409.027069,400.442596 
	C404.981384,407.082886 399.828217,411.273926 392.314636,409.647064 
	C384.314728,407.914886 378.933868,402.603302 377.789642,394.385437 
	C377.023468,388.882721 377.297638,383.149506 377.785858,377.578949 
	C378.430054,370.228668 383.382141,366.059540 390.004395,363.991028 
	C396.618744,361.925018 402.071747,364.543854 406.637360,369.303436 
	C407.529877,370.233856 408.084290,371.488647 408.659454,372.383484 
	C414.174561,369.475281 418.720001,367.078400 423.677948,364.464020 
	C422.468964,362.525391 421.436340,360.869537 419.942230,358.645081 
M288.378326,366.095337 
	C290.060516,365.506836 291.736298,364.430786 293.425964,364.408508 
	C304.842682,364.257660 316.262329,364.329803 327.648376,364.329803 
	C327.648376,358.436951 327.648376,353.207886 327.648376,348.260681 
	C309.036438,348.260681 290.791809,348.260681 272.440094,348.260681 
	C272.440094,374.103180 272.440094,399.518158 272.440094,425.242188 
	C277.751831,425.242188 282.818848,425.242188 288.456055,425.242188 
	C288.456055,414.544708 288.456055,404.129272 288.456055,393.245117 
	C296.264191,393.245117 303.512573,393.245117 311.012329,393.245117 
	C311.012329,387.680145 311.012329,382.602936 311.012329,376.953522 
	C303.512451,376.953522 296.122223,376.953522 288.337219,376.953522 
	C288.337219,373.256104 288.337219,370.123077 288.378326,366.095337 
z"/>
<path fill="#0A0803" opacity="1.000000" stroke="none" 
	d="
M249.756851,85.632950 
	C257.141357,81.517128 264.661469,77.623062 271.868134,73.216400 
	C277.802307,69.587845 283.142670,69.571358 289.372864,72.839920 
	C304.941559,81.007744 319.727173,90.741058 336.813446,95.918343 
	C390.799591,112.276581 443.007477,106.786583 493.815094,83.564575 
	C501.668610,79.975052 509.190552,75.664825 516.984131,71.935051 
	C518.476379,71.220894 520.991211,70.910522 522.246826,71.687065 
	C557.958679,93.774162 597.523865,100.051445 638.541138,99.786224 
	C656.839233,99.667908 675.129333,98.326393 693.794678,97.524055 
	C649.517883,175.049301 648.918518,254.653763 684.377625,335.890625 
	C494.751312,335.890625 305.682953,335.890625 115.861229,335.890625 
	C150.204285,254.015045 151.631927,173.809753 104.407372,94.587196 
	C154.054779,104.152481 201.876099,100.893013 249.367706,85.947510 
	C249.950485,86.193954 250.035660,86.291695 250.120819,86.389435 
	C249.999496,86.137276 249.878174,85.885109 249.756851,85.632950 
M461.977966,331.764130 
	C471.178192,331.697662 480.378418,331.631195 490.551605,331.752258 
	C500.739594,331.719757 510.927612,331.687256 522.030396,331.808716 
	C531.348694,331.758911 540.667053,331.709106 550.911316,331.816589 
	C561.219238,331.769257 571.527161,331.721924 582.797852,331.833374 
	C591.849182,331.774658 600.900574,331.715942 610.882019,331.815582 
	C621.173950,331.790833 631.465942,331.766083 642.732239,331.886871 
	C654.318481,331.886871 665.904724,331.886871 677.906311,331.886871 
	C645.594788,253.837662 646.126892,177.337570 686.056641,102.375565 
	C670.989685,102.998772 656.367676,103.603577 640.848450,104.085564 
	C630.556335,103.790207 620.264282,103.494850 609.108521,103.023720 
	C600.071045,101.828018 591.033508,100.632317 581.340027,99.135216 
	C570.915344,96.182541 560.490723,93.229858 549.391052,89.927383 
	C539.988647,85.351082 530.586243,80.774780 520.464539,75.804268 
	C519.526184,76.012077 518.500305,76.042343 517.662842,76.454926 
	C508.306000,81.064514 498.978210,85.733078 488.950104,90.627281 
	C479.621643,94.045654 470.293152,97.464027 460.168823,100.921730 
	C449.888824,103.233200 439.608826,105.544670 428.410370,107.754387 
	C420.029053,108.504524 411.647736,109.254669 403.221558,110.008820 
	C403.221558,183.951996 403.221558,257.595032 403.221558,331.613983 
	C412.041565,331.613983 420.641693,331.613983 430.132843,331.776672 
	C440.441193,331.712891 450.749512,331.649139 461.977966,331.764130 
M134.502731,103.008400 
	C127.624199,102.308884 120.745667,101.609360 113.312256,100.853409 
	C113.982574,102.292053 114.334457,103.190910 114.800316,104.026192 
	C128.014587,127.719360 137.139709,153.038940 141.609467,179.649078 
	C144.116959,194.577087 143.933380,210.062744 143.873795,225.292892 
	C143.770691,251.649399 141.056381,277.737854 132.430771,302.895721 
	C129.223694,312.249664 126.056839,321.617371 122.556870,331.903931 
	C214.692978,331.903931 306.263062,331.903931 398.314087,331.903931 
	C398.314087,257.454437 398.314087,183.800491 398.314087,109.928482 
	C396.734406,109.830635 395.778320,109.759689 394.821045,109.713814 
	C358.535217,107.975052 323.876587,100.322304 292.256958,81.565414 
	C289.543335,79.955681 286.620361,78.691368 283.949554,77.019127 
	C281.580139,75.535622 279.616791,75.484344 277.170563,77.041351 
	C271.421021,80.700882 265.465485,84.035408 259.624939,87.554016 
	C257.442261,88.868958 255.509644,91.124474 253.187042,91.598274 
	C235.244736,95.258354 217.304916,99.028030 199.227386,101.902489 
	C178.072250,105.266319 156.730896,104.768074 134.502731,103.008400 
z"/>
<path fill="#0E0A05" opacity="1.000000" stroke="none" 
	d="
M625.338745,651.322021 
	C592.332214,676.631653 555.023010,691.293091 515.080566,700.056763 
	C483.502869,706.985229 451.526306,708.957092 419.291656,708.598999 
	C396.968719,708.350952 374.579498,709.749634 352.324799,708.517456 
	C293.397278,705.254761 237.026794,692.234802 186.962418,659.246155 
	C135.408798,625.276123 106.450150,576.904663 97.859131,515.999939 
	C94.463463,491.926819 94.734222,467.846069 97.138031,443.731628 
	C97.301758,442.089172 97.664574,440.466522 97.984909,438.532043 
	C300.141998,438.532043 502.151825,438.532043 704.995605,438.532043 
	C705.463928,448.105072 706.192627,457.672882 706.356079,467.250366 
	C707.131897,512.689514 698.775818,555.952271 675.196594,595.484924 
	C662.244446,617.200500 645.575989,635.620117 625.338745,651.322021 
M446.267334,703.939392 
	C462.299744,702.442017 478.421539,701.560730 494.336334,699.252319 
	C507.076599,697.404358 519.565308,693.822021 532.940002,690.997437 
	C540.714111,688.597900 548.612549,686.537048 556.239014,683.735596 
	C579.471436,675.201599 601.473694,664.295410 621.639893,648.654419 
	C639.056091,635.242615 654.182190,619.649719 666.350403,601.301819 
	C695.837097,556.840210 704.040222,507.195679 701.738342,455.036194 
	C701.564880,451.105072 700.974304,447.192322 700.553162,443.028931 
	C673.786987,443.028931 647.342346,443.028931 619.978516,442.917358 
	C590.693848,442.955170 561.409180,442.992981 531.177124,442.887817 
	C502.591278,442.938293 474.005402,442.988770 444.421265,442.902008 
	C415.271210,442.945465 386.121124,442.988953 356.044708,442.901825 
	C327.048126,442.945953 298.051514,442.990082 268.118866,442.896576 
	C238.966812,442.942871 209.814758,442.989166 179.784698,442.924255 
	C155.287979,442.896576 130.790726,442.940155 106.295074,442.764313 
	C102.625389,442.737976 101.283081,444.014465 101.041733,447.529633 
	C99.557266,469.151459 99.095009,490.724457 101.826263,512.320862 
	C106.698410,550.845520 120.046387,585.776550 144.898819,615.936157 
	C155.309174,628.569641 166.843521,640.037537 181.033691,649.637451 
	C181.930695,650.377502 182.782532,651.181824 183.731247,651.848206 
	C209.742783,670.118652 238.442505,682.505432 269.778564,690.982239 
	C279.279755,693.216980 288.707947,695.851257 298.297424,697.602600 
	C317.683624,701.143188 337.120728,704.548706 357.904999,704.066772 
	C387.067932,703.989868 416.230865,703.912964 446.267334,703.939392 
z"/>
<path fill="#030200" opacity="1.000000" stroke="none" 
	d="
M525.133728,368.061096 
	C523.609375,373.606384 522.076660,378.710388 520.218567,384.897888 
	C524.273804,389.034973 528.529785,394.930206 528.060791,403.160248 
	C527.418457,414.430573 516.749573,426.071228 505.774994,426.399170 
	C492.632782,426.791931 479.474152,426.639679 466.322540,426.700653 
	C465.693970,426.703583 465.064392,426.486053 464.156738,426.320343 
	C464.156738,400.097595 464.156738,374.016449 464.156738,347.395782 
	C467.602203,347.395782 471.041412,347.371155 474.480133,347.400452 
	C484.301605,347.484161 494.129059,347.406769 503.942749,347.734589 
	C515.391174,348.117065 524.252075,356.617676 525.133728,368.061096 
M509.111542,404.347778 
	C510.800842,398.438751 508.684662,393.511108 503.261383,393.018616 
	C496.108643,392.369141 488.852478,392.858948 481.577179,392.858948 
	C481.577179,398.159180 481.577179,403.399078 481.577179,409.511139 
	C487.951111,409.511139 494.040039,409.360809 500.117004,409.565399 
	C504.000732,409.696106 506.881775,408.411682 509.111542,404.347778 
M499.116547,375.968506 
	C503.267944,376.179840 506.504761,374.839783 507.033295,370.294189 
	C507.491577,366.352448 504.817383,364.275116 501.371674,364.100159 
	C494.774017,363.765198 488.147278,364.002747 481.433685,364.002747 
	C481.433685,368.225342 481.433685,371.941101 481.433685,375.968536 
	C487.239716,375.968536 492.716034,375.968536 499.116547,375.968506 
z"/>
<path fill="#040300" opacity="1.000000" stroke="none" 
	d="
M420.172974,358.929382 
	C421.436340,360.869537 422.468964,362.525391 423.677948,364.464020 
	C418.720001,367.078400 414.174561,369.475281 408.659454,372.383484 
	C408.084290,371.488647 407.529877,370.233856 406.637360,369.303436 
	C402.071747,364.543854 396.618744,361.925018 390.004395,363.991028 
	C383.382141,366.059540 378.430054,370.228668 377.785858,377.578949 
	C377.297638,383.149506 377.023468,388.882721 377.789642,394.385437 
	C378.933868,402.603302 384.314728,407.914886 392.314636,409.647064 
	C399.828217,411.273926 404.981384,407.082886 409.027069,400.442596 
	C413.646149,403.039978 418.213226,405.608093 422.716034,408.140106 
	C420.652618,418.549408 409.654938,427.229218 397.909210,427.924011 
	C378.127838,429.094116 362.932526,416.216583 360.188324,395.850830 
	C358.732178,385.044342 360.224091,374.554718 364.483032,364.558929 
	C371.915039,347.115875 395.212799,341.321991 412.739044,352.541351 
	C415.366028,354.223022 417.552155,356.593323 420.172974,358.929382 
z"/>
<path fill="#030300" opacity="1.000000" stroke="none" 
	d="
M288.357788,366.542664 
	C288.337219,370.123077 288.337219,373.256104 288.337219,376.953522 
	C296.122223,376.953522 303.512451,376.953522 311.012329,376.953522 
	C311.012329,382.602936 311.012329,387.680145 311.012329,393.245117 
	C303.512573,393.245117 296.264191,393.245117 288.456055,393.245117 
	C288.456055,404.129272 288.456055,414.544708 288.456055,425.242188 
	C282.818848,425.242188 277.751831,425.242188 272.440094,425.242188 
	C272.440094,399.518158 272.440094,374.103180 272.440094,348.260681 
	C290.791809,348.260681 309.036438,348.260681 327.648376,348.260681 
	C327.648376,353.207886 327.648376,358.436951 327.648376,364.329803 
	C316.262329,364.329803 304.842682,364.257660 293.425964,364.408508 
	C291.736298,364.430786 290.060516,365.506836 288.357788,366.542664 
z"/>
<path fill="#FDFDFD" opacity="1.000000" stroke="none" 
	d="
M134.963257,103.024178 
	C156.730896,104.768074 178.072250,105.266319 199.227386,101.902489 
	C217.304916,99.028030 235.244736,95.258354 253.187042,91.598274 
	C255.509644,91.124474 257.442261,88.868958 259.624939,87.554016 
	C265.465485,84.035408 271.421021,80.700882 277.170563,77.041351 
	C279.616791,75.484344 281.580139,75.535622 283.949554,77.019127 
	C286.620361,78.691368 289.543335,79.955681 292.256958,81.565414 
	C323.876587,100.322304 358.535217,107.975052 394.821045,109.713814 
	C395.778320,109.759689 396.734406,109.830635 398.314087,109.928482 
	C398.314087,183.800491 398.314087,257.454437 398.314087,331.903931 
	C306.263062,331.903931 214.692978,331.903931 122.556870,331.903931 
	C126.056839,321.617371 129.223694,312.249664 132.430771,302.895721 
	C141.056381,277.737854 143.770691,251.649399 143.873795,225.292892 
	C143.933380,210.062744 144.116959,194.577087 141.609467,179.649078 
	C137.139709,153.038940 128.014587,127.719360 114.800316,104.026192 
	C114.334457,103.190910 113.982574,102.292053 113.312256,100.853409 
	C120.745667,101.609360 127.624199,102.308884 134.963257,103.024178 
M165.662140,115.017845 
	C163.224960,118.941833 160.787766,122.865822 157.436157,128.262085 
	C146.063934,132.247360 140.972488,140.795868 145.602005,150.894226 
	C149.797333,160.045456 159.803482,162.557068 170.453278,156.803299 
	C179.323532,165.115921 188.300537,173.528564 198.393158,182.986694 
	C188.325943,182.986694 179.903702,182.928986 171.482742,183.007874 
	C166.257477,183.056808 163.635620,185.765350 164.008362,190.649109 
	C164.335785,194.939087 166.617020,197.213821 171.084335,197.187698 
	C179.865234,197.136337 188.646667,197.172577 197.486923,197.172577 
	C199.765381,217.792877 210.552780,232.969574 225.354614,245.847763 
	C213.735886,256.620605 202.550613,266.991547 191.466461,277.268707 
	C184.397400,272.590363 177.675262,272.085052 171.119034,276.755981 
	C165.498413,280.760284 163.774689,286.775391 165.237900,293.101410 
	C166.909378,300.327850 171.911987,304.699371 179.708282,305.377655 
	C179.842377,306.147491 179.920105,306.786591 180.067154,307.409302 
	C182.620453,318.220612 191.069244,324.218872 200.115875,321.651550 
	C210.152649,318.803314 214.105392,309.976990 210.496979,298.787567 
	C210.177994,297.798431 210.382706,296.110229 211.045441,295.424652 
	C214.248260,292.111389 217.691040,289.030090 221.429688,285.507629 
	C223.622818,296.159210 227.241730,305.586121 235.863800,311.697418 
	C251.550125,322.815796 268.773651,322.618317 285.982605,316.267761 
	C299.433685,311.303955 305.646912,300.017090 308.353912,285.984406 
	C312.107178,290.089233 315.550659,293.855225 319.177399,297.821655 
	C314.597931,308.042297 317.780090,317.615784 327.595734,321.209137 
	C337.008026,324.654785 347.733368,318.786560 349.146942,307.751190 
	C349.276825,306.737061 351.199982,305.556824 352.506622,305.152618 
	C362.034332,302.205322 366.835541,293.042145 363.381500,284.088104 
	C359.866089,274.974945 349.775146,271.148499 340.865570,275.853577 
	C338.495758,277.105072 337.198181,276.895477 335.346283,275.133514 
	C327.141541,267.327148 318.805145,259.658905 310.493317,251.965530 
	C308.478271,250.100403 306.375732,248.329834 304.168213,246.388046 
	C321.141968,233.237793 330.998657,216.978333 334.106476,196.938110 
	C342.976746,196.938110 351.138763,196.972473 359.300354,196.926331 
	C364.971985,196.894257 368.048859,194.275681 368.012939,189.664017 
	C367.977234,185.078583 365.407074,183.043274 359.558289,183.007706 
	C355.558594,182.983383 351.558655,182.991592 347.558838,182.989319 
	C343.046814,182.986740 338.534790,182.988724 334.022766,182.988724 
	C333.872925,182.520554 333.723083,182.052368 333.573242,181.584198 
	C342.227936,173.476379 350.882629,165.368561 359.453827,157.338943 
	C370.460419,163.230896 380.160767,160.760880 384.442993,151.343109 
	C386.420563,146.993927 386.497925,142.713928 384.553223,138.408112 
	C381.798706,132.309372 376.647583,129.451523 370.807220,128.592865 
	C370.037598,125.693817 369.776611,123.136078 368.710144,120.976051 
	C364.844849,113.147217 355.428223,110.113274 347.548340,113.914154 
	C339.758453,117.671646 336.571625,126.356850 339.799133,134.504196 
	C340.357971,135.914978 340.787872,138.391556 340.039642,139.142303 
	C334.813599,144.385971 329.261780,149.304993 323.769348,154.369400 
	C296.322052,113.759529 234.421356,111.103264 206.340714,154.244965 
	C200.411880,148.620956 194.518234,143.030319 188.704269,137.515274 
	C193.037140,127.901443 192.156082,121.591805 186.500641,115.875847 
	C182.145752,111.474380 172.015320,110.132385 165.662140,115.017845 
z"/>
<path fill="#DC002C" opacity="1.000000" stroke="none" 
	d="
M521.115601,331.654785 
	C510.927612,331.687256 500.739594,331.719757 490.074921,331.217896 
	C489.613037,250.584290 489.627808,170.485016 489.642578,90.385750 
	C498.978210,85.733078 508.306000,81.064514 517.662842,76.454926 
	C518.500305,76.042343 519.526184,76.012077 520.801025,76.455978 
	C521.130249,161.956711 521.122925,246.805756 521.115601,331.654785 
z"/>
<path fill="#DC022B" opacity="1.000000" stroke="none" 
	d="
M550.066040,90.277176 
	C560.490723,93.229858 570.915344,96.182541 581.592468,99.786926 
	C581.841614,177.517303 581.838379,254.595963 581.835083,331.674622 
	C571.527161,331.721924 561.219238,331.769257 550.441223,331.293762 
	C549.980591,322.271149 549.995789,313.771393 549.998596,305.271637 
	C550.022339,233.606812 550.043884,161.942001 550.066040,90.277176 
z"/>
<path fill="#DC032B" opacity="1.000000" stroke="none" 
	d="
M641.757874,331.741333 
	C631.465942,331.766083 621.173950,331.790833 610.409668,331.292053 
	C609.948975,254.912155 609.960571,179.055832 609.972168,103.199493 
	C620.264282,103.494850 630.556335,103.790207 641.297119,104.599548 
	C641.749817,180.656128 641.753845,256.198730 641.757874,331.741333 
z"/>
<path fill="#DC032B" opacity="1.000000" stroke="none" 
	d="
M429.328827,107.856148 
	C439.608826,105.544670 449.888824,103.233200 460.596252,101.379105 
	C461.035095,178.419449 461.046478,255.002426 461.057861,331.585388 
	C450.749512,331.649139 440.441193,331.712891 429.682831,331.256256 
	C429.253815,328.570801 429.292725,326.405762 429.293121,324.240723 
	C429.307281,252.112534 429.317780,179.984344 429.328827,107.856148 
z"/>
<path fill="#FEEC00" opacity="1.000000" stroke="none" 
	d="
M549.728516,90.102280 
	C550.043884,161.942001 550.022339,233.606812 549.998596,305.271637 
	C549.995789,313.771393 549.980591,322.271149 549.978271,331.215088 
	C540.667053,331.709106 531.348694,331.758911 521.572998,331.731750 
	C521.122925,246.805756 521.130249,161.956711 521.160706,76.653076 
	C530.586243,80.774780 539.988647,85.351082 549.728516,90.102280 
z"/>
<path fill="#FEE901" opacity="1.000000" stroke="none" 
	d="
M461.517914,331.674744 
	C461.046478,255.002426 461.035095,178.419449 460.994202,101.359444 
	C470.293152,97.464027 479.621643,94.045654 489.296326,90.506516 
	C489.627808,170.485016 489.613037,250.584290 489.588440,331.124146 
	C480.378418,331.631195 471.178192,331.697662 461.517914,331.674744 
z"/>
<path fill="#FFED00" opacity="1.000000" stroke="none" 
	d="
M609.540344,103.111603 
	C609.960571,179.055832 609.948975,254.912155 609.944641,331.212830 
	C600.900574,331.715942 591.849182,331.774658 582.316467,331.753998 
	C581.838379,254.595963 581.841614,177.517303 581.920471,99.937622 
	C591.033508,100.632317 600.071045,101.828018 609.540344,103.111603 
z"/>
<path fill="#FFEE00" opacity="1.000000" stroke="none" 
	d="
M428.869598,107.805267 
	C429.317780,179.984344 429.307281,252.112534 429.293121,324.240723 
	C429.292725,326.405762 429.253815,328.570801 429.237305,331.174927 
	C420.641693,331.613983 412.041565,331.613983 403.221558,331.613983 
	C403.221558,257.595032 403.221558,183.951996 403.221558,110.008820 
	C411.647736,109.254669 420.029053,108.504524 428.869598,107.805267 
z"/>
<path fill="#FDEC00" opacity="1.000000" stroke="none" 
	d="
M642.245056,331.814087 
	C641.753845,256.198730 641.749817,180.656128 641.745728,104.660950 
	C656.367676,103.603577 670.989685,102.998772 686.056641,102.375565 
	C646.126892,177.337570 645.594788,253.837662 677.906311,331.886871 
	C665.904724,331.886871 654.318481,331.886871 642.245056,331.814087 
z"/>
<path fill="#14120E" opacity="1.000000" stroke="none" 
	d="
M249.772827,85.711731 
	C249.878174,85.885109 249.999496,86.137276 250.120819,86.389435 
	C250.035660,86.291695 249.950485,86.193954 249.747955,85.929176 
	C249.630569,85.762138 249.788818,85.790512 249.772827,85.711731 
z"/>
<path fill="#A50042" opacity="1.000000" stroke="none" 
	d="
M532.124512,443.030792 
	C561.409180,442.992981 590.693848,442.955170 620.445068,443.439026 
	C620.913513,463.952576 620.906799,483.944427 620.919067,503.936279 
	C620.948669,552.248901 620.987000,600.561523 621.021790,648.874146 
	C601.473694,664.295410 579.471436,675.201599 556.239014,683.735596 
	C548.612549,686.537048 540.714111,688.597900 532.528198,690.532471 
	C532.119141,607.721924 532.121826,525.376343 532.124512,443.030792 
z"/>
<path fill="#A60042" opacity="1.000000" stroke="none" 
	d="
M269.019348,690.777039 
	C238.442505,682.505432 209.742783,670.118652 183.731247,651.848206 
	C182.782532,651.181824 181.930695,650.377502 180.862839,648.879150 
	C180.682220,579.759033 180.672455,511.397247 180.662704,443.035461 
	C209.814758,442.989166 238.966812,442.942871 268.589294,443.430725 
	C269.046234,526.235596 269.032806,608.506348 269.019348,690.777039 
z"/>
<path fill="#004C99" opacity="1.000000" stroke="none" 
	d="
M269.398956,690.879639 
	C269.032806,608.506348 269.046234,526.235596 269.057312,443.499573 
	C298.051514,442.990082 327.048126,442.945953 356.504700,443.432617 
	C357.000732,462.263611 357.036743,480.563812 356.811951,499.090881 
	C355.203308,500.292755 353.859955,501.274078 352.506927,502.241913 
	C321.606293,524.344788 309.467285,565.737549 323.402313,601.030884 
	C330.242279,618.354614 341.886749,631.636292 357.028137,642.528503 
	C356.982147,663.304443 356.976501,683.617432 356.970856,703.930359 
	C337.120728,704.548706 317.683624,701.143188 298.297424,697.602600 
	C288.707947,695.851257 279.279755,693.216980 269.398956,690.879639 
z"/>
<path fill="#014C99" opacity="1.000000" stroke="none" 
	d="
M531.650818,442.959290 
	C532.121826,525.376343 532.119141,607.721924 532.141052,690.538452 
	C519.565308,693.822021 507.076599,697.404358 494.336334,699.252319 
	C478.421539,701.560730 462.299744,702.442017 445.806152,703.433838 
	C445.346924,682.911865 445.348907,662.895447 445.577759,642.680725 
	C446.867493,641.681946 447.901154,640.838867 448.997620,640.087280 
	C490.306549,611.774780 498.493866,555.696167 466.484192,516.988770 
	C460.531647,509.790680 452.534180,504.283691 445.534119,497.578735 
	C445.531708,479.120575 445.475647,461.079895 445.419556,443.039246 
	C474.005402,442.988770 502.591278,442.938293 531.650818,442.959290 
z"/>
<path fill="#014B98" opacity="1.000000" stroke="none" 
	d="
M180.223694,442.979858 
	C180.672455,511.397247 180.682220,579.759033 180.651031,648.598755 
	C166.843521,640.037537 155.309174,628.569641 144.898819,615.936157 
	C120.046387,585.776550 106.698410,550.845520 101.826263,512.320862 
	C99.095009,490.724457 99.557266,469.151459 101.041733,447.529633 
	C101.283081,444.014465 102.625389,442.737976 106.295074,442.764313 
	C130.790726,442.940155 155.287979,442.896576 180.223694,442.979858 
z"/>
<path fill="#004C99" opacity="1.000000" stroke="none" 
	d="
M621.330811,648.764282 
	C620.987000,600.561523 620.948669,552.248901 620.919067,503.936279 
	C620.906799,483.944427 620.913513,463.952576 620.904663,443.494812 
	C647.342346,443.028931 673.786987,443.028931 700.553162,443.028931 
	C700.974304,447.192322 701.564880,451.105072 701.738342,455.036194 
	C704.040222,507.195679 695.837097,556.840210 666.350403,601.301819 
	C654.182190,619.649719 639.056091,635.242615 621.330811,648.764282 
z"/>
<path fill="#A60042" opacity="1.000000" stroke="none" 
	d="
M445.350922,642.879089 
	C445.348907,662.895447 445.346924,682.911865 445.369385,703.382141 
	C416.230865,703.912964 387.067932,703.989868 357.437927,703.998535 
	C356.976501,683.617432 356.982147,663.304443 357.362488,642.609741 
	C358.608582,642.708984 359.478241,643.193237 360.351715,643.670471 
	C375.726562,652.072021 392.002716,655.777771 409.615479,654.215576 
	C422.469116,653.075500 434.061188,648.612671 445.350922,642.879089 
z"/>
<path fill="#A60042" opacity="1.000000" stroke="none" 
	d="
M444.920410,442.970642 
	C445.475647,461.079895 445.531708,479.120575 445.219574,497.510681 
	C430.615662,489.948334 415.392883,485.707245 399.070129,486.210144 
	C383.994965,486.674622 370.062347,491.293762 357.072754,498.863983 
	C357.036743,480.563812 357.000732,462.263611 356.967896,443.497925 
	C386.121124,442.988953 415.271210,442.945465 444.920410,442.970642 
z"/>
<path fill="#E5B500" opacity="1.000000" stroke="none" 
	d="
M508.980652,404.712952 
	C506.881775,408.411682 504.000732,409.696106 500.117004,409.565399 
	C494.040039,409.360809 487.951111,409.511139 481.577179,409.511139 
	C481.577179,403.399078 481.577179,398.159180 481.577179,392.858948 
	C488.852478,392.858948 496.108643,392.369141 503.261383,393.018616 
	C508.684662,393.511108 510.800842,398.438751 508.980652,404.712952 
z"/>
<path fill="#EAB900" opacity="1.000000" stroke="none" 
	d="
M498.654449,375.968506 
	C492.716034,375.968536 487.239716,375.968536 481.433685,375.968536 
	C481.433685,371.941101 481.433685,368.225342 481.433685,364.002747 
	C488.147278,364.002747 494.774017,363.765198 501.371674,364.100159 
	C504.817383,364.275116 507.491577,366.352448 507.033295,370.294189 
	C506.504761,374.839783 503.267944,376.179840 498.654449,375.968506 
z"/>
<path fill="#0A0909" opacity="1.000000" stroke="none" 
	d="
M165.989471,114.826828 
	C172.015320,110.132385 182.145752,111.474380 186.500641,115.875847 
	C192.156082,121.591805 193.037140,127.901443 188.704269,137.515274 
	C194.518234,143.030319 200.411880,148.620956 206.340714,154.244965 
	C234.421356,111.103264 296.322052,113.759529 323.769348,154.369400 
	C329.261780,149.304993 334.813599,144.385971 340.039642,139.142303 
	C340.787872,138.391556 340.357971,135.914978 339.799133,134.504196 
	C336.571625,126.356850 339.758453,117.671646 347.548340,113.914154 
	C355.428223,110.113274 364.844849,113.147217 368.710144,120.976051 
	C369.776611,123.136078 370.037598,125.693817 370.807220,128.592865 
	C376.647583,129.451523 381.798706,132.309372 384.553223,138.408112 
	C386.497925,142.713928 386.420563,146.993927 384.442993,151.343109 
	C380.160767,160.760880 370.460419,163.230896 359.453827,157.338943 
	C350.882629,165.368561 342.227936,173.476379 333.573242,181.584198 
	C333.723083,182.052368 333.872925,182.520554 334.022766,182.988724 
	C338.534790,182.988724 343.046814,182.986740 347.558838,182.989319 
	C351.558655,182.991592 355.558594,182.983383 359.558289,183.007706 
	C365.407074,183.043274 367.977234,185.078583 368.012939,189.664017 
	C368.048859,194.275681 364.971985,196.894257 359.300354,196.926331 
	C351.138763,196.972473 342.976746,196.938110 334.106476,196.938110 
	C330.998657,216.978333 321.141968,233.237793 304.168213,246.388046 
	C306.375732,248.329834 308.478271,250.100403 310.493317,251.965530 
	C318.805145,259.658905 327.141541,267.327148 335.346283,275.133514 
	C337.198181,276.895477 338.495758,277.105072 340.865570,275.853577 
	C349.775146,271.148499 359.866089,274.974945 363.381500,284.088104 
	C366.835541,293.042145 362.034332,302.205322 352.506622,305.152618 
	C351.199982,305.556824 349.276825,306.737061 349.146942,307.751190 
	C347.733368,318.786560 337.008026,324.654785 327.595734,321.209137 
	C317.780090,317.615784 314.597931,308.042297 319.177399,297.821655 
	C315.550659,293.855225 312.107178,290.089233 308.353912,285.984406 
	C305.646912,300.017090 299.433685,311.303955 285.982605,316.267761 
	C268.773651,322.618317 251.550125,322.815796 235.863800,311.697418 
	C227.241730,305.586121 223.622818,296.159210 221.429688,285.507629 
	C217.691040,289.030090 214.248260,292.111389 211.045441,295.424652 
	C210.382706,296.110229 210.177994,297.798431 210.496979,298.787567 
	C214.105392,309.976990 210.152649,318.803314 200.115875,321.651550 
	C191.069244,324.218872 182.620453,318.220612 180.067154,307.409302 
	C179.920105,306.786591 179.842377,306.147491 179.708282,305.377655 
	C171.911987,304.699371 166.909378,300.327850 165.237900,293.101410 
	C163.774689,286.775391 165.498413,280.760284 171.119034,276.755981 
	C177.675262,272.085052 184.397400,272.590363 191.466461,277.268707 
	C202.550613,266.991547 213.735886,256.620605 225.354614,245.847763 
	C210.552780,232.969574 199.765381,217.792877 197.486923,197.172577 
	C188.646667,197.172577 179.865234,197.136337 171.084335,197.187698 
	C166.617020,197.213821 164.335785,194.939087 164.008362,190.649109 
	C163.635620,185.765350 166.257477,183.056808 171.482742,183.007874 
	C179.903702,182.928986 188.325943,182.986694 198.393158,182.986694 
	C188.300537,173.528564 179.323532,165.115921 170.453278,156.803299 
	C159.803482,162.557068 149.797333,160.045456 145.602005,150.894226 
	C140.972488,140.795868 146.063934,132.247360 157.436157,128.262085 
	C160.787766,122.865822 163.224960,118.941833 165.989471,114.826828 
M284.331940,249.987167 
	C312.550262,242.874252 327.404022,215.826111 329.003113,197.867584 
	C286.771240,197.867584 244.559052,197.867584 201.607224,197.867584 
	C204.814972,214.926102 211.697174,229.439163 225.496429,239.960831 
	C243.022659,253.324234 262.826416,254.367859 284.331940,249.987167 
M305.859680,140.598221 
	C271.305084,113.126198 220.352814,128.715240 208.287277,162.771744 
	C246.404449,162.771744 284.495728,162.771744 323.045807,162.771744 
	C319.243195,153.880615 313.173584,147.203735 305.859680,140.598221 
M207.692322,182.629288 
	C248.090424,182.629288 288.488525,182.629288 329.609192,182.629288 
	C328.899536,178.440857 328.505157,175.365479 327.837677,172.350571 
	C326.855164,167.912628 324.725616,165.824356 319.410583,165.876221 
	C285.789764,166.204208 252.164200,166.046448 218.540207,166.047165 
	C203.543625,166.047470 203.541565,166.045258 201.273972,180.998489 
	C201.228470,181.298584 201.403488,181.632111 201.629395,182.627625 
	C203.237671,182.627625 204.998871,182.627625 207.692322,182.629288 
M259.906158,316.928406 
	C265.365570,316.612854 270.874176,316.656067 276.275360,315.915710 
	C293.796356,313.514099 307.172546,295.840393 304.426941,278.836090 
	C277.725769,292.915924 251.247681,293.534271 225.100189,277.032166 
	C224.656143,295.860901 233.051697,309.271851 248.417542,314.415497 
	C251.835129,315.559479 255.467438,316.062042 259.906158,316.928406 
M304.178619,254.545120 
	C305.481995,261.137360 307.122467,267.686646 307.970062,274.337006 
	C308.534119,278.762695 309.229340,282.562561 313.067322,285.557312 
	C317.328522,288.882324 321.093292,292.843628 325.028076,296.485199 
	C320.265930,303.182281 319.658142,308.562683 322.919861,313.242065 
	C325.842438,317.434906 330.794006,319.327881 336.000153,317.992432 
	C344.297607,315.863983 345.522369,309.389740 345.074524,302.217255 
	C354.866608,301.647614 358.481049,299.238251 360.398041,292.234680 
	C361.648438,287.666382 359.507629,282.114410 354.914154,279.517761 
	C352.869568,278.361969 350.070343,277.450867 347.891907,277.871124 
	C344.399658,278.544922 341.138885,280.418518 337.095398,282.063660 
	C327.827759,273.325104 317.929535,263.950989 307.963074,254.649979 
	C306.811951,253.575684 305.281525,252.907745 303.926971,252.051407 
	C303.959991,252.633728 303.993042,253.216064 304.178619,254.545120 
M211.326965,289.831177 
	C212.903259,288.352478 214.536682,286.929230 216.040726,285.380341 
	C217.742004,283.628265 220.442078,281.944489 220.771393,279.916565 
	C222.263962,270.725586 223.073135,261.423676 224.121750,252.219238 
	C213.457031,262.084778 202.429306,272.286102 191.458679,282.434631 
	C184.193222,276.518097 179.964920,275.714264 174.603851,278.994843 
	C169.856155,281.900085 167.577286,287.082886 169.125504,292.681427 
	C169.706543,294.782562 170.971161,297.314880 172.701492,298.345642 
	C176.055756,300.343872 179.960724,301.417603 183.940292,302.994385 
	C184.036163,311.179688 186.694611,316.070404 192.410095,317.811768 
	C197.374252,319.324158 203.130966,317.378754 206.170868,313.161469 
	C209.604797,308.397552 208.948441,302.588928 204.174988,296.308258 
	C206.363892,294.302368 208.566101,292.284271 211.326965,289.831177 
M201.642456,155.050308 
	C195.463074,149.226669 189.283691,143.403030 183.107880,137.582764 
	C188.703064,131.260513 189.433701,126.145348 185.609451,120.598328 
	C182.609436,116.246819 176.609955,114.330040 171.486771,116.086281 
	C165.822296,118.028076 163.023895,123.578377 163.577026,131.774323 
	C154.442978,132.372055 149.872681,135.080460 148.237885,140.864410 
	C146.922455,145.518433 149.007645,151.343613 152.968246,154.079147 
	C158.031403,157.576218 163.581253,156.873596 170.506210,151.657852 
	C179.412521,159.974564 188.374725,168.343430 197.187317,176.572617 
	C199.225800,171.116318 200.921249,165.683640 203.309418,160.574753 
	C204.451859,158.130768 203.968765,156.925171 201.642456,155.050308 
M364.184357,155.715302 
	C369.388214,158.080383 374.241272,157.503326 378.355682,153.521515 
	C381.976044,150.017792 383.046814,145.663269 381.343170,140.818588 
	C378.775360,133.516327 372.893982,132.249786 366.103088,132.889618 
	C367.537689,125.530533 365.675659,120.642120 360.487915,117.708565 
	C355.623505,114.957840 350.325745,115.422508 346.350128,119.200958 
	C339.644714,125.573792 341.714294,132.102707 346.616547,138.378784 
	C339.510468,144.996552 332.718048,151.322235 326.224731,157.369370 
	C328.800385,163.711960 331.236237,169.710297 333.804230,176.034058 
	C342.367615,168.097488 350.975616,160.119522 359.514557,152.205582 
	C360.961670,153.251205 362.297882,154.216690 364.184357,155.715302 
M180.547638,193.981918 
	C239.342178,193.981949 298.136719,193.982071 356.931244,193.981522 
	C358.263672,193.981522 359.858337,194.432510 360.863739,193.857193 
	C362.191711,193.097260 363.878265,191.546463 363.902802,190.305771 
	C363.929993,188.933121 362.470062,187.269638 361.236511,186.235031 
	C360.537354,185.648605 358.993378,186.040817 357.829895,186.040726 
	C296.703583,186.036072 235.577286,186.036545 174.450989,186.037201 
	C173.618301,186.037216 172.482834,185.700974 172.009369,186.115860 
	C170.552750,187.392212 169.349380,188.957565 168.047607,190.410629 
	C169.389816,191.600311 170.569809,193.445496 172.111969,193.827148 
	C174.466309,194.409775 177.070923,193.981155 180.547638,193.981918 
M245.228210,271.864929 
	C244.867416,274.315704 244.216293,276.772369 244.266144,279.214783 
	C244.291748,280.469055 245.354721,282.558441 246.314606,282.796631 
	C251.969559,284.199860 257.732147,285.169373 263.640564,286.320465 
	C263.640564,281.387329 263.640564,277.311005 263.640564,273.397369 
	C257.485657,272.633331 251.623505,271.905609 245.228210,271.864929 
M260.775513,256.686523 
	C256.707397,256.137756 252.639313,255.588989 248.202118,254.990433 
	C247.471970,258.905518 246.762390,262.710205 245.922134,267.215576 
	C251.930649,268.194489 257.676544,269.130615 263.916016,270.147156 
	C263.916016,266.070557 264.056915,262.597687 263.813690,259.151947 
	C263.755280,258.324219 262.421326,257.586517 260.775513,256.686523 
M283.057861,272.559113 
	C282.411591,272.081909 281.696869,271.122864 281.129883,271.203461 
	C276.477509,271.864777 271.852631,272.719574 267.242126,273.511719 
	C267.242126,277.676483 267.242126,281.760223 267.242126,286.273651 
	C273.267303,285.184540 278.984558,284.151062 284.661804,283.124847 
	C284.087891,279.262115 283.653137,276.336243 283.057861,272.559113 
M303.225281,274.211731 
	C303.225281,270.846100 303.225281,267.480438 303.225281,263.627594 
	C300.437408,264.858582 298.521698,265.744812 296.574371,266.555115 
	C293.439911,267.859406 288.897339,268.292389 287.521820,270.616089 
	C286.100220,273.017670 287.740265,277.236115 288.064178,280.657593 
	C288.089020,280.920197 288.298187,281.165314 288.664154,281.915833 
	C293.350677,279.536560 298.013275,277.169464 303.225281,274.211731 
M296.296997,262.962524 
	C298.153351,262.004303 300.009705,261.046112 302.072845,259.981140 
	C300.631531,256.298981 299.317139,252.941025 298.016602,249.618530 
	C292.829071,251.468994 288.422607,253.040833 283.924713,254.645294 
	C284.705780,258.639984 285.458282,262.488770 286.298340,266.785065 
	C289.528503,265.494568 292.530914,264.295044 296.296997,262.962524 
M267.037415,257.868439 
	C267.037415,261.826050 267.037415,265.783661 267.037415,270.121460 
	C272.481812,269.285583 277.412170,268.528656 282.460327,267.753632 
	C281.776764,263.110809 281.188721,259.116730 280.613495,255.209732 
	C275.913300,255.856415 271.659271,256.441711 267.037415,257.868439 
M241.246567,273.984161 
	C241.532028,272.426514 241.817474,270.868896 242.026077,269.730682 
	C236.700668,267.211823 231.925308,264.953094 226.021210,262.160492 
	C226.021210,266.168335 224.660370,270.877380 226.294388,272.425568 
	C230.115784,276.046265 235.374176,278.150299 240.707153,281.250061 
	C240.891144,278.106598 240.987259,276.464355 241.246567,273.984161 
M239.066193,264.474426 
	C240.273819,264.885193 241.481445,265.295990 242.661682,265.697418 
	C243.320999,261.792267 243.945023,258.096069 244.596710,254.236099 
	C240.344421,252.567200 236.096283,250.899948 231.833694,249.227005 
	C226.288330,257.401764 226.572449,258.581482 235.218231,262.789124 
	C236.248093,263.290344 237.345383,263.652924 239.066193,264.474426 
z"/>
<path fill="#0B0802" opacity="1.000000" stroke="none" 
	d="
M356.811951,499.090881 
	C370.062347,491.293762 383.994965,486.674622 399.070129,486.210144 
	C415.392883,485.707245 430.615662,489.948334 445.165924,497.928162 
	C452.534180,504.283691 460.531647,509.790680 466.484192,516.988770 
	C498.493866,555.696167 490.306549,611.774780 448.997620,640.087280 
	C447.901154,640.838867 446.867493,641.681946 445.577759,642.680725 
	C434.061188,648.612671 422.469116,653.075500 409.615479,654.215576 
	C392.002716,655.777771 375.726562,652.072021 360.351715,643.670471 
	C359.478241,643.193237 358.608582,642.708984 357.402832,642.146729 
	C341.886749,631.636292 330.242279,618.354614 323.402313,601.030884 
	C309.467285,565.737549 321.606293,524.344788 352.506927,502.241913 
	C353.859955,501.274078 355.203308,500.292755 356.811951,499.090881 
M435.482208,583.243225 
	C434.179047,580.560303 433.109833,577.730164 431.530762,575.220825 
	C425.778076,566.078979 417.107727,563.343323 407.496460,568.338135 
	C404.625397,569.830200 402.522552,573.377197 400.795135,576.398560 
	C390.458710,594.477966 379.722534,597.932251 361.172363,588.548401 
	C354.181122,599.805786 343.577606,604.939880 330.068146,605.121338 
	C334.821259,615.215942 341.282410,623.100830 348.863678,630.205811 
	C351.394928,632.578003 354.062958,633.668152 357.407867,632.911499 
	C370.658752,629.913574 384.187531,627.770569 397.074402,623.632446 
	C412.929504,618.541260 426.113708,609.115234 434.792114,594.269409 
	C436.794800,590.843506 437.609711,587.608643 435.482208,583.243225 
M389.875519,491.567657 
	C378.872131,493.195496 368.655914,496.975220 359.317474,503.002838 
	C357.895508,503.920654 356.281433,505.355927 355.848724,506.865051 
	C351.625000,521.597412 348.146088,536.487427 348.579834,551.969788 
	C348.850311,561.622986 350.863068,570.773865 357.053131,578.564148 
	C370.280518,595.211060 385.103058,594.392822 396.265106,576.382996 
	C397.388794,574.570007 398.361053,572.663147 399.489136,570.646973 
	C392.900299,564.174866 385.748169,558.379883 385.702820,548.214661 
	C385.659088,538.414062 391.295898,531.107727 396.435883,523.517334 
	C388.787384,513.240479 385.610535,502.715363 394.334564,491.050049 
	C392.608734,491.208771 391.628418,491.298950 389.875519,491.567657 
M406.067627,564.641907 
	C411.721954,562.152283 417.500977,561.048157 423.465942,563.426453 
	C433.635345,567.481201 437.087189,576.823975 440.659485,585.933167 
	C456.239960,582.690979 466.674805,589.867371 475.391541,602.142395 
	C477.734436,594.224487 479.615692,586.376770 481.009644,578.443481 
	C481.337311,576.578796 480.445526,574.163635 479.391205,572.445740 
	C471.130707,558.986389 460.891785,547.235352 448.171539,537.803650 
	C435.840057,528.660156 422.390137,522.600342 406.547974,524.071106 
	C404.307129,524.279175 401.292114,524.459595 400.055603,525.884888 
	C388.098297,539.667786 384.679688,552.238281 398.101593,564.116516 
	C400.724060,566.437378 402.644531,566.886780 406.067627,564.641907 
M423.128021,613.632874 
	C404.368683,628.586670 381.800323,633.170593 358.513916,636.740967 
	C359.285706,637.593140 359.548676,638.049927 359.943146,638.295532 
	C397.276093,661.531433 448.292175,650.090088 471.075562,609.894775 
	C471.778412,608.654785 471.974213,606.635498 471.501740,605.299438 
	C467.955841,595.272461 455.846588,587.700623 445.374298,589.201233 
	C443.339813,589.492798 441.189484,591.366577 439.760590,593.070618 
	C434.248047,599.645020 429.006226,606.446411 423.128021,613.632874 
M448.625275,505.835419 
	C435.445923,496.337433 420.770905,491.318207 404.504089,490.720459 
	C400.902161,490.588135 398.653961,491.835358 396.564453,494.617462 
	C389.621338,503.861664 393.738312,513.584045 398.674622,519.806335 
	C399.342407,520.648132 401.364563,520.934875 402.621826,520.709656 
	C415.693604,518.367798 427.728699,521.493225 439.142914,527.595276 
	C454.261200,535.677551 466.139374,547.431580 476.312622,561.046143 
	C477.748291,562.967407 479.197327,564.878723 480.948792,567.204407 
	C482.420227,546.702454 469.424683,522.047119 448.625275,505.835419 
M355.936096,589.334412 
	C356.729889,588.136169 357.523682,586.937866 358.355438,585.682312 
	C349.665649,577.241760 345.128204,567.085205 345.151154,555.558044 
	C345.171875,545.148010 346.562592,534.724854 347.661469,524.340454 
	C348.123383,519.975464 349.388763,515.695496 350.458618,510.562531 
	C348.895355,511.332214 348.110107,511.546631 347.544495,512.022217 
	C324.613953,531.304199 315.179077,571.066467 327.197205,598.419495 
	C327.767090,599.716553 330.051971,601.028625 331.538879,601.029480 
	C341.172455,601.034973 349.422394,597.733093 355.936096,589.334412 
z"/>
<path fill="#FDFDFD" opacity="1.000000" stroke="none" 
	d="
M283.914703,250.010101 
	C262.826416,254.367859 243.022659,253.324234 225.496429,239.960831 
	C211.697174,229.439163 204.814972,214.926102 201.607224,197.867584 
	C244.559052,197.867584 286.771240,197.867584 329.003113,197.867584 
	C327.404022,215.826111 312.550262,242.874252 283.914703,250.010101 
M224.312607,225.919403 
	C225.334366,227.414368 226.240128,229.006622 227.398163,230.387283 
	C232.116486,236.012619 240.270416,237.843063 246.785110,234.833282 
	C253.576233,231.695770 258.735809,223.591248 257.641876,217.348267 
	C256.233276,209.309494 251.558273,203.969528 243.682129,201.653702 
	C237.396835,199.805618 231.896683,201.388428 227.353745,206.037613 
	C221.889465,211.629684 221.199951,218.134140 224.312607,225.919403 
M278.162140,206.714584 
	C274.729401,210.501785 273.602936,214.942749 273.924103,220.005310 
	C274.339539,226.554626 277.186646,231.374908 283.184906,234.088211 
	C289.619385,236.998871 296.106995,237.337860 301.820587,232.625870 
	C307.123718,228.252380 309.368011,222.443146 308.422180,215.440018 
	C306.777893,203.265549 290.389740,195.582977 278.162140,206.714584 
M271.965820,238.937958 
	C269.951569,237.727112 267.979126,235.647125 265.911407,235.547653 
	C263.805023,235.446289 261.252899,236.915939 259.601929,238.455048 
	C258.836243,239.168869 259.143829,242.642883 260.012238,243.183670 
	C262.178223,244.532516 264.995575,245.663177 267.455780,245.493561 
	C270.269012,245.299591 272.630859,243.337784 271.965820,238.937958 
z"/>
<path fill="#FBCF11" opacity="1.000000" stroke="none" 
	d="
M306.139038,140.819611 
	C313.173584,147.203735 319.243195,153.880615 323.045807,162.771744 
	C284.495728,162.771744 246.404449,162.771744 208.287277,162.771744 
	C220.352814,128.715240 271.305084,113.126198 306.139038,140.819611 
M227.939789,147.334396 
	C225.856812,150.107437 223.701187,152.831207 221.757538,155.698685 
	C221.405655,156.217819 221.923126,157.326248 222.039261,158.162613 
	C222.909119,158.030624 224.150055,158.220856 224.589340,157.714966 
	C227.727173,154.101486 230.754959,150.387070 233.669022,146.590591 
	C234.093918,146.037033 233.727982,144.876434 233.727982,142.709793 
	C231.374741,144.540085 229.915314,145.675186 227.939789,147.334396 
M304.817963,148.580399 
	C303.451202,147.604660 302.084473,146.628906 300.717712,145.653152 
	C300.307159,146.098846 299.896637,146.544540 299.486084,146.990234 
	C302.479126,151.895721 305.472198,156.801208 308.465271,161.706696 
	C308.963959,161.434021 309.462616,161.161346 309.961304,160.888672 
	C310.476471,156.248322 307.688782,152.785965 304.817963,148.580399 
M236.038498,158.596695 
	C236.832031,154.970825 242.179749,152.864441 239.429962,147.899445 
	C236.644409,150.961639 234.396851,154.285858 232.432846,157.769913 
	C232.079620,158.396545 232.894867,159.681870 233.170639,160.663071 
	C234.061798,160.215622 234.952957,159.768188 236.038498,158.596695 
M291.786530,157.636871 
	C292.416229,158.690582 293.045929,159.744308 293.675659,160.798050 
	C294.324860,160.358429 295.267456,160.064697 295.571442,159.453384 
	C296.759155,157.064972 293.545715,151.818619 289.637695,150.752991 
	C290.303741,153.111679 290.845886,155.031479 291.786530,157.636871 
M247.769028,156.042603 
	C247.914291,154.640472 248.059555,153.238327 248.204819,151.836197 
	C246.969223,152.638824 245.318283,153.184586 244.617355,154.317886 
	C243.944901,155.405182 244.257599,157.101746 244.137360,158.530579 
	C245.200455,157.907990 246.263565,157.285416 247.769028,156.042603 
z"/>
<path fill="#FB0111" opacity="1.000000" stroke="none" 
	d="
M207.226196,182.628448 
	C204.998871,182.627625 203.237671,182.627625 201.629395,182.627625 
	C201.403488,181.632111 201.228470,181.298584 201.273972,180.998489 
	C203.541565,166.045258 203.543625,166.047470 218.540207,166.047165 
	C252.164200,166.046448 285.789764,166.204208 319.410583,165.876221 
	C324.725616,165.824356 326.855164,167.912628 327.837677,172.350571 
	C328.505157,175.365479 328.899536,178.440857 329.609192,182.629288 
	C288.488525,182.629288 248.090424,182.629288 207.226196,182.628448 
z"/>
<path fill="#FDFDFD" opacity="1.000000" stroke="none" 
	d="
M259.453522,316.894165 
	C255.467438,316.062042 251.835129,315.559479 248.417542,314.415497 
	C233.051697,309.271851 224.656143,295.860901 225.100189,277.032166 
	C251.247681,293.534271 277.725769,292.915924 304.426941,278.836090 
	C307.172546,295.840393 293.796356,313.514099 276.275360,315.915710 
	C270.874176,316.656067 265.365570,316.612854 259.453522,316.894165 
z"/>
<path fill="#FDFDFD" opacity="1.000000" stroke="none" 
	d="
M304.102356,254.171753 
	C303.993042,253.216064 303.959991,252.633728 303.926971,252.051407 
	C305.281525,252.907745 306.811951,253.575684 307.963074,254.649979 
	C317.929535,263.950989 327.827759,273.325104 337.095398,282.063660 
	C341.138885,280.418518 344.399658,278.544922 347.891907,277.871124 
	C350.070343,277.450867 352.869568,278.361969 354.914154,279.517761 
	C359.507629,282.114410 361.648438,287.666382 360.398041,292.234680 
	C358.481049,299.238251 354.866608,301.647614 345.074524,302.217255 
	C345.522369,309.389740 344.297607,315.863983 336.000153,317.992432 
	C330.794006,319.327881 325.842438,317.434906 322.919861,313.242065 
	C319.658142,308.562683 320.265930,303.182281 325.028076,296.485199 
	C321.093292,292.843628 317.328522,288.882324 313.067322,285.557312 
	C309.229340,282.562561 308.534119,278.762695 307.970062,274.337006 
	C307.122467,267.686646 305.481995,261.137360 304.102356,254.171753 
z"/>
<path fill="#FDFDFC" opacity="1.000000" stroke="none" 
	d="
M211.047638,290.048706 
	C208.566101,292.284271 206.363892,294.302368 204.174988,296.308258 
	C208.948441,302.588928 209.604797,308.397552 206.170868,313.161469 
	C203.130966,317.378754 197.374252,319.324158 192.410095,317.811768 
	C186.694611,316.070404 184.036163,311.179688 183.940292,302.994385 
	C179.960724,301.417603 176.055756,300.343872 172.701492,298.345642 
	C170.971161,297.314880 169.706543,294.782562 169.125504,292.681427 
	C167.577286,287.082886 169.856155,281.900085 174.603851,278.994843 
	C179.964920,275.714264 184.193222,276.518097 191.458679,282.434631 
	C202.429306,272.286102 213.457031,262.084778 224.121750,252.219238 
	C223.073135,261.423676 222.263962,270.725586 220.771393,279.916565 
	C220.442078,281.944489 217.742004,283.628265 216.040726,285.380341 
	C214.536682,286.929230 212.903259,288.352478 211.047638,290.048706 
z"/>
<path fill="#FDFDFD" opacity="1.000000" stroke="none" 
	d="
M201.891754,155.325592 
	C203.968765,156.925171 204.451859,158.130768 203.309418,160.574753 
	C200.921249,165.683640 199.225800,171.116318 197.187317,176.572617 
	C188.374725,168.343430 179.412521,159.974564 170.506210,151.657852 
	C163.581253,156.873596 158.031403,157.576218 152.968246,154.079147 
	C149.007645,151.343613 146.922455,145.518433 148.237885,140.864410 
	C149.872681,135.080460 154.442978,132.372055 163.577026,131.774323 
	C163.023895,123.578377 165.822296,118.028076 171.486771,116.086281 
	C176.609955,114.330040 182.609436,116.246819 185.609451,120.598328 
	C189.433701,126.145348 188.703064,131.260513 183.107880,137.582764 
	C189.283691,143.403030 195.463074,149.226669 201.891754,155.325592 
z"/>
<path fill="#FDFDFD" opacity="1.000000" stroke="none" 
	d="
M363.909241,155.448746 
	C362.297882,154.216690 360.961670,153.251205 359.514557,152.205582 
	C350.975616,160.119522 342.367615,168.097488 333.804230,176.034058 
	C331.236237,169.710297 328.800385,163.711960 326.224731,157.369370 
	C332.718048,151.322235 339.510468,144.996552 346.616547,138.378784 
	C341.714294,132.102707 339.644714,125.573792 346.350128,119.200958 
	C350.325745,115.422508 355.623505,114.957840 360.487915,117.708565 
	C365.675659,120.642120 367.537689,125.530533 366.103088,132.889618 
	C372.893982,132.249786 378.775360,133.516327 381.343170,140.818588 
	C383.046814,145.663269 381.976044,150.017792 378.355682,153.521515 
	C374.241272,157.503326 369.388214,158.080383 363.909241,155.448746 
z"/>
<path fill="#FDD011" opacity="1.000000" stroke="none" 
	d="
M180.058456,193.981903 
	C177.070923,193.981155 174.466309,194.409775 172.111969,193.827148 
	C170.569809,193.445496 169.389816,191.600311 168.047607,190.410629 
	C169.349380,188.957565 170.552750,187.392212 172.009369,186.115860 
	C172.482834,185.700974 173.618301,186.037216 174.450989,186.037201 
	C235.577286,186.036545 296.703583,186.036072 357.829895,186.040726 
	C358.993378,186.040817 360.537354,185.648605 361.236511,186.235031 
	C362.470062,187.269638 363.929993,188.933121 363.902802,190.305771 
	C363.878265,191.546463 362.191711,193.097260 360.863739,193.857193 
	C359.858337,194.432510 358.263672,193.981522 356.931244,193.981522 
	C298.136719,193.982071 239.342178,193.981949 180.058456,193.981903 
z"/>
<path fill="#F9F9F9" opacity="1.000000" stroke="none" 
	d="
M245.494781,271.521423 
	C251.623505,271.905609 257.485657,272.633331 263.640564,273.397369 
	C263.640564,277.311005 263.640564,281.387329 263.640564,286.320465 
	C257.732147,285.169373 251.969559,284.199860 246.314606,282.796631 
	C245.354721,282.558441 244.291748,280.469055 244.266144,279.214783 
	C244.216293,276.772369 244.867416,274.315704 245.494781,271.521423 
z"/>
<path fill="#F8F8F8" opacity="1.000000" stroke="none" 
	d="
M261.224731,256.746979 
	C262.421326,257.586517 263.755280,258.324219 263.813690,259.151947 
	C264.056915,262.597687 263.916016,266.070557 263.916016,270.147156 
	C257.676544,269.130615 251.930649,268.194489 245.922134,267.215576 
	C246.762390,262.710205 247.471970,258.905518 248.202118,254.990433 
	C252.639313,255.588989 256.707397,256.137756 261.224731,256.746979 
z"/>
<path fill="#FBFBFB" opacity="1.000000" stroke="none" 
	d="
M283.138123,272.984741 
	C283.653137,276.336243 284.087891,279.262115 284.661804,283.124847 
	C278.984558,284.151062 273.267303,285.184540 267.242126,286.273651 
	C267.242126,281.760223 267.242126,277.676483 267.242126,273.511719 
	C271.852631,272.719574 276.477509,271.864777 281.129883,271.203461 
	C281.696869,271.122864 282.411591,272.081909 283.138123,272.984741 
z"/>
<path fill="#FAFAFA" opacity="1.000000" stroke="none" 
	d="
M302.950562,274.507050 
	C298.013275,277.169464 293.350677,279.536560 288.664154,281.915833 
	C288.298187,281.165314 288.089020,280.920197 288.064178,280.657593 
	C287.740265,277.236115 286.100220,273.017670 287.521820,270.616089 
	C288.897339,268.292389 293.439911,267.859406 296.574371,266.555115 
	C298.521698,265.744812 300.437408,264.858582 303.225281,263.627594 
	C303.225281,267.480438 303.225281,270.846100 302.950562,274.507050 
z"/>
<path fill="#FBFBFB" opacity="1.000000" stroke="none" 
	d="
M295.915161,263.029022 
	C292.530914,264.295044 289.528503,265.494568 286.298340,266.785065 
	C285.458282,262.488770 284.705780,258.639984 283.924713,254.645294 
	C288.422607,253.040833 292.829071,251.468994 298.016602,249.618530 
	C299.317139,252.941025 300.631531,256.298981 302.072845,259.981140 
	C300.009705,261.046112 298.153351,262.004303 295.915161,263.029022 
z"/>
<path fill="#FAFAFA" opacity="1.000000" stroke="none" 
	d="
M267.221313,257.447723 
	C271.659271,256.441711 275.913300,255.856415 280.613495,255.209732 
	C281.188721,259.116730 281.776764,263.110809 282.460327,267.753632 
	C277.412170,268.528656 272.481812,269.285583 267.037415,270.121460 
	C267.037415,265.783661 267.037415,261.826050 267.221313,257.447723 
z"/>
<path fill="#FAFAFA" opacity="1.000000" stroke="none" 
	d="
M241.164978,274.403137 
	C240.987259,276.464355 240.891144,278.106598 240.707153,281.250061 
	C235.374176,278.150299 230.115784,276.046265 226.294388,272.425568 
	C224.660370,270.877380 226.021210,266.168335 226.021210,262.160492 
	C231.925308,264.953094 236.700668,267.211823 242.026077,269.730682 
	C241.817474,270.868896 241.532028,272.426514 241.164978,274.403137 
z"/>
<path fill="#FBFBFB" opacity="1.000000" stroke="none" 
	d="
M238.738800,264.277100 
	C237.345383,263.652924 236.248093,263.290344 235.218231,262.789124 
	C226.572449,258.581482 226.288330,257.401764 231.833694,249.227005 
	C236.096283,250.899948 240.344421,252.567200 244.596710,254.236099 
	C243.945023,258.096069 243.320999,261.792267 242.661682,265.697418 
	C241.481445,265.295990 240.273819,264.885193 238.738800,264.277100 
z"/>
<path fill="#ECBA00" opacity="1.000000" stroke="none" 
	d="
M435.641296,583.601074 
	C437.609711,587.608643 436.794800,590.843506 434.792114,594.269409 
	C426.113708,609.115234 412.929504,618.541260 397.074402,623.632446 
	C384.187531,627.770569 370.658752,629.913574 357.407867,632.911499 
	C354.062958,633.668152 351.394928,632.578003 348.863678,630.205811 
	C341.282410,623.100830 334.821259,615.215942 330.068146,605.121338 
	C343.577606,604.939880 354.181122,599.805786 361.172363,588.548401 
	C379.722534,597.932251 390.458710,594.477966 400.795135,576.398560 
	C402.522552,573.377197 404.625397,569.830200 407.496460,568.338135 
	C417.107727,563.343323 425.778076,566.078979 431.530762,575.220825 
	C433.109833,577.730164 434.179047,580.560303 435.641296,583.601074 
z"/>
<path fill="#ECBA00" opacity="1.000000" stroke="none" 
	d="
M390.261810,491.478394 
	C391.628418,491.298950 392.608734,491.208771 394.334564,491.050049 
	C385.610535,502.715363 388.787384,513.240479 396.435883,523.517334 
	C391.295898,531.107727 385.659088,538.414062 385.702820,548.214661 
	C385.748169,558.379883 392.900299,564.174866 399.489136,570.646973 
	C398.361053,572.663147 397.388794,574.570007 396.265106,576.382996 
	C385.103058,594.392822 370.280518,595.211060 357.053131,578.564148 
	C350.863068,570.773865 348.850311,561.622986 348.579834,551.969788 
	C348.146088,536.487427 351.625000,521.597412 355.848724,506.865051 
	C356.281433,505.355927 357.895508,503.920654 359.317474,503.002838 
	C368.655914,496.975220 378.872131,493.195496 390.261810,491.478394 
z"/>
<path fill="#ECBB00" opacity="1.000000" stroke="none" 
	d="
M405.690735,564.796997 
	C402.644531,566.886780 400.724060,566.437378 398.101593,564.116516 
	C384.679688,552.238281 388.098297,539.667786 400.055603,525.884888 
	C401.292114,524.459595 404.307129,524.279175 406.547974,524.071106 
	C422.390137,522.600342 435.840057,528.660156 448.171539,537.803650 
	C460.891785,547.235352 471.130707,558.986389 479.391205,572.445740 
	C480.445526,574.163635 481.337311,576.578796 481.009644,578.443481 
	C479.615692,586.376770 477.734436,594.224487 475.391541,602.142395 
	C466.674805,589.867371 456.239960,582.690979 440.659485,585.933167 
	C437.087189,576.823975 433.635345,567.481201 423.465942,563.426453 
	C417.500977,561.048157 411.721954,562.152283 405.690735,564.796997 
z"/>
<path fill="#ECBA00" opacity="1.000000" stroke="none" 
	d="
M423.395752,613.398071 
	C429.006226,606.446411 434.248047,599.645020 439.760590,593.070618 
	C441.189484,591.366577 443.339813,589.492798 445.374298,589.201233 
	C455.846588,587.700623 467.955841,595.272461 471.501740,605.299438 
	C471.974213,606.635498 471.778412,608.654785 471.075562,609.894775 
	C448.292175,650.090088 397.276093,661.531433 359.943146,638.295532 
	C359.548676,638.049927 359.285706,637.593140 358.513916,636.740967 
	C381.800323,633.170593 404.368683,628.586670 423.395752,613.398071 
z"/>
<path fill="#EBBA00" opacity="1.000000" stroke="none" 
	d="
M448.928223,506.025208 
	C469.424683,522.047119 482.420227,546.702454 480.948792,567.204407 
	C479.197327,564.878723 477.748291,562.967407 476.312622,561.046143 
	C466.139374,547.431580 454.261200,535.677551 439.142914,527.595276 
	C427.728699,521.493225 415.693604,518.367798 402.621826,520.709656 
	C401.364563,520.934875 399.342407,520.648132 398.674622,519.806335 
	C393.738312,513.584045 389.621338,503.861664 396.564453,494.617462 
	C398.653961,491.835358 400.902161,490.588135 404.504089,490.720459 
	C420.770905,491.318207 435.445923,496.337433 448.928223,506.025208 
z"/>
<path fill="#EBBA00" opacity="1.000000" stroke="none" 
	d="
M355.711945,589.617737 
	C349.422394,597.733093 341.172455,601.034973 331.538879,601.029480 
	C330.051971,601.028625 327.767090,599.716553 327.197205,598.419495 
	C315.179077,571.066467 324.613953,531.304199 347.544495,512.022217 
	C348.110107,511.546631 348.895355,511.332214 350.458618,510.562531 
	C349.388763,515.695496 348.123383,519.975464 347.661469,524.340454 
	C346.562592,534.724854 345.171875,545.148010 345.151154,555.558044 
	C345.128204,567.085205 349.665649,577.241760 358.355438,585.682312 
	C357.523682,586.937866 356.729889,588.136169 355.711945,589.617737 
z"/>
<path fill="#020202" opacity="1.000000" stroke="none" 
	d="
M224.163605,225.564270 
	C221.199951,218.134140 221.889465,211.629684 227.353745,206.037613 
	C231.896683,201.388428 237.396835,199.805618 243.682129,201.653702 
	C251.558273,203.969528 256.233276,209.309494 257.641876,217.348267 
	C258.735809,223.591248 253.576233,231.695770 246.785110,234.833282 
	C240.270416,237.843063 232.116486,236.012619 227.398163,230.387283 
	C226.240128,229.006622 225.334366,227.414368 224.163605,225.564270 
z"/>
<path fill="#020202" opacity="1.000000" stroke="none" 
	d="
M278.424042,206.451202 
	C290.389740,195.582977 306.777893,203.265549 308.422180,215.440018 
	C309.368011,222.443146 307.123718,228.252380 301.820587,232.625870 
	C296.106995,237.337860 289.619385,236.998871 283.184906,234.088211 
	C277.186646,231.374908 274.339539,226.554626 273.924103,220.005310 
	C273.602936,214.942749 274.729401,210.501785 278.424042,206.451202 
z"/>
<path fill="#080808" opacity="1.000000" stroke="none" 
	d="
M272.010925,239.335114 
	C272.630859,243.337784 270.269012,245.299591 267.455780,245.493561 
	C264.995575,245.663177 262.178223,244.532516 260.012238,243.183670 
	C259.143829,242.642883 258.836243,239.168869 259.601929,238.455048 
	C261.252899,236.915939 263.805023,235.446289 265.911407,235.547653 
	C267.979126,235.647125 269.951569,237.727112 272.010925,239.335114 
z"/>
<path fill="#0C0A02" opacity="1.000000" stroke="none" 
	d="
M228.197845,147.072327 
	C229.915314,145.675186 231.374741,144.540085 233.727982,142.709793 
	C233.727982,144.876434 234.093918,146.037033 233.669022,146.590591 
	C230.754959,150.387070 227.727173,154.101486 224.589340,157.714966 
	C224.150055,158.220856 222.909119,158.030624 222.039246,158.162613 
	C221.923126,157.326248 221.405655,156.217819 221.757538,155.698685 
	C223.701187,152.831207 225.856812,150.107437 228.197845,147.072327 
z"/>
<path fill="#0D0B02" opacity="1.000000" stroke="none" 
	d="
M305.015625,148.896332 
	C307.688782,152.785965 310.476471,156.248322 309.961304,160.888672 
	C309.462616,161.161346 308.963959,161.434021 308.465271,161.706696 
	C305.472198,156.801208 302.479126,151.895721 299.486084,146.990234 
	C299.896637,146.544540 300.307159,146.098846 300.717712,145.653152 
	C302.084473,146.628906 303.451202,147.604660 305.015625,148.896332 
z"/>
<path fill="#0F0C02" opacity="1.000000" stroke="none" 
	d="
M235.941315,158.958710 
	C234.952957,159.768188 234.061798,160.215622 233.170654,160.663071 
	C232.894867,159.681870 232.079620,158.396545 232.432846,157.769913 
	C234.396851,154.285858 236.644409,150.961639 239.429962,147.899445 
	C242.179749,152.864441 236.832031,154.970825 235.941315,158.958710 
z"/>
<path fill="#141003" opacity="1.000000" stroke="none" 
	d="
M291.587280,157.294067 
	C290.845886,155.031479 290.303741,153.111679 289.637695,150.752991 
	C293.545715,151.818619 296.759155,157.064972 295.571442,159.453384 
	C295.267456,160.064697 294.324860,160.358429 293.675659,160.798035 
	C293.045929,159.744308 292.416229,158.690582 291.587280,157.294067 
z"/>
<path fill="#0F0C02" opacity="1.000000" stroke="none" 
	d="
M247.547852,156.352722 
	C246.263565,157.285416 245.200455,157.907990 244.137360,158.530579 
	C244.257599,157.101746 243.944901,155.405182 244.617355,154.317886 
	C245.318283,153.184586 246.969223,152.638824 248.204819,151.836197 
	C248.059555,153.238327 247.914291,154.640472 247.547852,156.352722 
z"/>
</svg>